<?xml version="1.0" standalone="no"?>
<!DOCTYPE svg PUBLIC "-//W3C//DTD SVG 20010904//EN"
 "http://www.w3.org/TR/2001/REC-SVG-20010904/DTD/svg10.dtd">
<svg version="1.0" xmlns="http://www.w3.org/2000/svg"
 width="500.000000pt" height="500.000000pt" viewBox="0 0 500.000000 500.000000"
 preserveAspectRatio="xMidYMid meet">

<g transform="translate(0.000000,500.000000) scale(0.100000,-0.100000)"
fill="#000000" stroke="none">
<path d="M1072 3498 c-20 -20 -14 -66 11 -82 13 -8 269 -52 617 -106 327 -50
623 -96 657 -102 l62 -10 -47 -25 c-61 -32 -106 -65 -165 -122 l-47 -46 -792
123 c-727 112 -794 121 -815 107 -25 -17 -32 -66 -10 -83 6 -5 352 -62 767
-126 415 -65 760 -119 767 -121 9 -3 5 -21 -13 -62 -15 -32 -36 -97 -48 -144
l-21 -85 -795 123 c-575 89 -801 120 -817 114 -43 -19 -38 -82 8 -96 12 -4
374 -62 805 -129 431 -67 785 -124 788 -127 2 -2 6 -73 8 -156 5 -151 5 -153
-16 -148 -12 3 -331 53 -710 111 -756 116 -736 115 -736 50 0 -24 6 -38 18
-44 9 -5 346 -60 749 -123 l732 -113 17 -46 c25 -69 74 -150 118 -198 21 -23
37 -44 35 -46 -2 -2 -258 36 -569 85 -413 65 -571 86 -587 79 -12 -5 -25 -21
-29 -36 -15 -58 -24 -56 702 -169 368 -57 698 -111 734 -121 149 -37 191 -43
302 -44 138 0 232 18 338 63 l75 33 93 -85 93 -84 89 88 88 88 -86 82 -86 82
22 31 c37 51 90 172 114 257 19 70 22 106 22 280 1 175 -2 211 -22 288 -82
327 -327 528 -672 553 -47 3 -445 62 -884 130 -440 68 -811 124 -826 124 -14
0 -31 -5 -38 -12z m1813 -543 c135 -38 240 -162 282 -332 20 -84 22 -303 4
-388 -13 -61 -49 -155 -59 -155 -3 0 -41 35 -84 77 l-79 76 -85 -84 c-46 -46
-84 -88 -84 -93 0 -5 35 -42 78 -81 42 -40 75 -75 71 -79 -3 -3 -34 -13 -70
-22 -117 -30 -249 -7 -341 61 -140 103 -206 280 -194 525 8 182 46 294 129
386 105 117 263 156 432 109z"/>
<path d="M3760 3091 l0 -139 103 -7 c56 -4 127 -5 157 -3 l55 3 3 143 3 142
-161 0 -160 0 0 -139z"/>
<path d="M3767 2804 c-4 -4 -7 -272 -7 -596 l0 -588 160 0 160 0 -2 593 -3
592 -151 3 c-82 1 -153 -1 -157 -4z"/>
</g>
</svg>
