<?xml version="1.0" standalone="no"?>
<!DOCTYPE svg PUBLIC "-//W3C//DTD SVG 20010904//EN"
 "http://www.w3.org/TR/2001/REC-SVG-20010904/DTD/svg10.dtd">
<svg version="1.0" xmlns="http://www.w3.org/2000/svg"
 width="500.000000pt" height="500.000000pt" viewBox="0 0 500.000000 500.000000"
 preserveAspectRatio="xMidYMid meet">

<g transform="translate(0.000000,500.000000) scale(0.100000,-0.100000)"
fill="#000000" stroke="none">
<path d="M2185 4477 c-33 -7 -69 -18 -80 -24 -11 -5 -42 -16 -70 -22 -27 -7
-61 -19 -74 -28 -24 -15 -116 -44 -201 -64 -25 -5 -84 -32 -131 -59 -48 -28
-89 -50 -93 -50 -3 0 -36 -18 -72 -40 -36 -22 -70 -40 -75 -40 -5 0 -9 -7 -9
-15 0 -9 -8 -19 -17 -22 -39 -15 -102 -65 -165 -132 -37 -39 -72 -71 -77 -71
-6 0 -18 -14 -26 -30 -9 -17 -27 -36 -40 -42 -13 -6 -37 -29 -52 -52 -15 -23
-33 -48 -40 -56 -122 -140 -227 -304 -296 -464 -18 -40 -38 -80 -44 -87 -6 -8
-21 -47 -33 -87 -12 -39 -26 -75 -31 -78 -12 -7 -11 -68 1 -80 8 -8 7 -19 0
-39 -6 -15 -10 -35 -8 -44 1 -9 -4 -27 -12 -41 -20 -33 -21 -561 -2 -568 8 -2
12 -27 12 -68 0 -36 4 -73 9 -83 6 -11 7 -42 1 -82 -8 -58 -7 -65 11 -82 14
-13 17 -22 10 -27 -18 -10 6 -70 94 -230 7 -14 31 -63 54 -111 22 -47 57 -105
78 -130 21 -24 46 -60 55 -79 8 -20 38 -60 65 -90 28 -30 57 -68 66 -85 8 -16
46 -59 83 -93 38 -35 90 -83 116 -107 26 -24 67 -55 92 -70 25 -15 60 -40 77
-56 53 -50 159 -114 309 -187 116 -57 156 -72 202 -75 31 -2 55 0 52 5 -6 9
37 11 60 2 9 -3 14 -10 11 -14 -10 -16 158 -59 285 -75 142 -17 425 -21 415
-5 -4 6 6 11 22 11 32 2 72 6 123 13 173 23 210 31 210 45 0 8 38 23 115 46
121 36 341 152 373 197 7 10 22 18 33 18 41 0 198 109 199 138 0 6 8 12 18 12
23 0 272 252 272 274 0 9 16 30 35 47 19 17 35 37 35 45 0 8 22 49 49 93 27
43 66 111 86 152 76 150 188 489 192 579 1 30 4 96 8 145 l6 90 -28 -34 c-29
-35 -38 -66 -72 -246 -21 -114 -65 -249 -110 -345 -18 -39 -27 -67 -21 -70 6
-4 2 -14 -10 -25 -11 -10 -20 -24 -20 -31 0 -16 -66 -134 -90 -159 -10 -11
-20 -24 -21 -30 -5 -27 -24 -55 -40 -60 -11 -4 -38 -37 -62 -74 -99 -152 -437
-471 -500 -471 -9 0 -37 -18 -61 -40 -24 -22 -48 -40 -53 -40 -5 0 -18 -9 -29
-21 -13 -14 -26 -19 -44 -15 -29 5 -140 -41 -140 -59 0 -20 -52 -37 -140 -46
-104 -9 -236 -39 -220 -49 7 -4 -7 -12 -34 -19 -54 -13 -69 -14 -62 -2 4 5 -4
7 -16 3 -11 -3 -19 -1 -16 4 4 5 -35 10 -88 10 -52 1 -94 -2 -94 -7 0 -13 -53
-11 -87 3 -33 13 -114 21 -201 19 -35 -1 -69 3 -76 8 -7 6 -32 10 -55 9 -27
-1 -46 4 -54 14 -14 18 -83 38 -143 42 -25 1 -50 10 -60 21 -17 17 -17 18 -1
12 42 -17 49 -16 12 3 -22 11 -50 20 -63 20 -32 0 -114 39 -107 50 4 6 0 10
-9 10 -8 0 -27 11 -43 24 -15 13 -61 41 -102 62 -104 55 -106 56 -179 115 -85
70 -102 87 -102 100 0 6 -7 8 -17 5 -17 -7 -63 28 -63 48 0 5 -21 28 -46 50
-25 23 -47 49 -48 60 -1 10 -27 46 -57 79 -30 33 -70 79 -90 101 -20 23 -56
79 -81 126 -25 47 -57 103 -71 124 -28 40 -38 76 -12 42 22 -29 18 -2 -4 35
-14 23 -18 42 -14 68 6 32 4 34 -9 23 -14 -11 -18 -8 -28 20 -6 18 -14 56 -17
83 -2 28 -12 61 -20 74 -10 15 -13 36 -10 57 3 18 1 34 -4 36 -10 3 -35 120
-44 209 -2 26 -9 59 -15 73 -9 25 -5 151 7 186 9 28 3 195 -8 237 -12 45 -6
93 12 93 7 0 9 -12 5 -34 -4 -20 -2 -37 4 -41 5 -3 10 3 10 14 0 12 3 21 8 21
11 0 40 116 47 190 6 58 18 120 30 157 2 7 11 10 20 7 8 -3 12 -11 8 -18 -4
-6 1 -5 10 3 10 8 15 21 12 31 -3 9 8 43 25 76 16 32 30 64 30 69 0 6 19 35
42 65 23 30 68 95 100 144 32 49 65 94 72 100 8 6 16 23 20 37 3 14 12 42 21
62 14 33 18 36 35 27 11 -6 20 -18 20 -27 0 -14 2 -14 20 2 15 14 17 20 8 26
-14 9 -15 8 34 38 21 13 38 31 40 44 2 14 9 21 21 21 10 -1 25 9 34 22 8 13
25 24 38 24 21 0 63 36 150 129 22 24 41 38 43 32 8 -25 39 -8 69 38 18 27 47
60 65 73 38 28 88 51 88 41 0 -4 -28 -36 -62 -70 -59 -60 -61 -62 -32 -59 43
6 82 23 107 47 l22 22 -36 -21 c-48 -29 -58 -28 -28 4 21 23 107 74 125 74 3
0 3 -7 0 -16 -5 -12 -2 -15 11 -9 10 4 32 11 48 15 17 5 48 15 70 24 22 8 53
15 68 16 26 0 27 1 13 16 -9 8 -16 26 -16 40 0 23 2 24 77 24 74 0 76 0 59
-19 -17 -18 -16 -19 21 -15 51 4 140 27 183 46 30 14 55 15 167 7 73 -5 142
-13 155 -18 14 -5 31 -3 47 6 34 17 155 17 189 -1 16 -8 61 -18 102 -21 95 -9
144 -28 136 -52 -5 -15 10 -25 77 -56 77 -35 120 -49 87 -27 -12 8 -11 10 7
10 41 0 134 -42 168 -76 33 -33 53 -45 40 -24 -8 14 -1 13 41 -5 45 -19 37 -6
-13 20 -21 11 -56 34 -79 52 -26 21 -55 35 -80 37 -42 4 -174 60 -174 74 0 10
-77 46 -130 61 -37 10 -199 40 -365 66 -136 22 -461 29 -540 12z m-1465 -2657
c0 -5 -2 -10 -4 -10 -3 0 -8 5 -11 10 -3 6 -1 10 4 10 6 0 11 -4 11 -10z"/>
<path d="M2763 4383 c9 -2 25 -2 35 0 9 3 1 5 -18 5 -19 0 -27 -2 -17 -5z"/>
<path d="M3587 4119 c7 -7 15 -10 18 -7 3 3 -2 9 -12 12 -14 6 -15 5 -6 -5z"/>
<path d="M1460 4075 c-7 -8 -8 -15 -2 -15 5 0 15 7 22 15 7 8 8 15 2 15 -5 0
-15 -7 -22 -15z"/>
<path d="M3669 4028 c18 -13 48 -36 67 -51 18 -16 38 -26 44 -22 12 8 3 46
-14 57 -16 11 -20 0 -6 -17 19 -23 -4 -18 -26 6 -17 20 -72 49 -91 49 -4 0 7
-10 26 -22z"/>
<path d="M3880 3891 c0 -16 30 -35 41 -24 6 6 1 13 -16 21 -14 6 -25 8 -25 3z"/>
<path d="M1060 3754 c0 -14 3 -14 15 -4 8 7 15 14 15 16 0 2 -7 4 -15 4 -8 0
-15 -7 -15 -16z"/>
<path d="M2143 3166 c-4 -8 -17 -15 -28 -18 -19 -3 -20 -12 -23 -164 -2 -142
0 -164 15 -183 17 -21 18 -16 18 146 0 167 0 168 23 171 17 3 22 10 22 33 0
31 -14 38 -27 15z"/>
<path d="M2433 3166 c-4 -8 -17 -15 -28 -17 -19 -4 -20 -14 -25 -170 -5 -138
-9 -171 -26 -204 -36 -72 -135 -102 -247 -76 -32 8 -36 7 -26 -5 32 -39 172
-46 239 -11 72 36 83 70 90 267 5 162 5 165 28 168 17 3 22 10 22 33 0 31 -14
38 -27 15z"/>
<path d="M2670 3170 c0 -6 -14 -16 -30 -22 l-30 -10 2 -186 c2 -135 6 -186 15
-189 10 -4 13 38 15 173 l3 178 25 6 c18 4 25 13 25 30 0 13 -6 25 -12 28 -7
2 -13 -1 -13 -8z"/>
<path d="M3363 3166 c-4 -8 -17 -15 -28 -17 -18 -4 -20 -13 -23 -89 -2 -77 -1
-83 12 -64 8 11 16 43 18 70 3 42 6 49 26 52 17 3 22 10 22 33 0 31 -14 38
-27 15z"/>
<path d="M3594 3166 c-3 -8 -18 -16 -34 -20 -20 -3 -49 -29 -94 -82 -36 -42
-66 -82 -66 -88 0 -6 10 -22 23 -36 12 -14 19 -21 15 -16 -15 19 -7 34 58 110
46 54 74 79 95 83 24 4 29 10 29 34 0 30 -17 40 -26 15z"/>
<path d="M3116 3111 c-5 -36 -13 -55 -29 -66 -19 -13 -20 -17 -7 -25 40 -25
62 2 64 77 1 72 -19 82 -28 14z"/>
<path d="M1585 3117 c-68 -68 -73 -236 -9 -313 l24 -29 -16 32 c-40 85 -24
225 32 281 30 30 39 34 80 30 45 -3 45 -3 24 14 -13 11 -39 18 -62 18 -32 0
-47 -7 -73 -33z"/>
<path d="M2490 3136 c0 -9 5 -16 10 -16 6 0 10 4 10 9 0 6 -4 13 -10 16 -5 3
-10 -1 -10 -9z"/>
<path d="M2900 3128 c-75 -51 -104 -188 -61 -284 23 -51 46 -68 26 -20 -23 55
-19 155 8 206 30 57 64 81 122 88 44 4 46 6 30 18 -29 21 -88 17 -125 -8z"/>
<path d="M1965 3130 c3 -5 10 -10 16 -10 5 0 9 5 9 10 0 6 -7 10 -16 10 -8 0
-12 -4 -9 -10z"/>
<path d="M2290 3130 c0 -5 5 -10 10 -10 6 0 10 5 10 10 0 6 -4 10 -10 10 -5 0
-10 -4 -10 -10z"/>
<path d="M3190 3130 c0 -5 5 -10 10 -10 6 0 10 5 10 10 0 6 -4 10 -10 10 -5 0
-10 -4 -10 -10z"/>
<path d="M1871 3083 c29 -58 35 -148 15 -217 -19 -63 -82 -142 -122 -152 -29
-7 -31 -20 -4 -29 31 -10 55 2 99 50 52 56 76 134 67 219 -6 60 -35 135 -60
156 -9 6 -7 -4 5 -27z"/>
<path d="M3310 2835 c0 -58 3 -75 14 -75 17 0 27 125 12 141 -21 20 -26 6 -26
-66z"/>
<path d="M3450 2896 c0 -2 8 -10 18 -17 15 -13 16 -12 3 4 -13 16 -21 21 -21
13z"/>
<path d="M3480 2856 c0 -2 8 -10 18 -17 15 -13 16 -12 3 4 -13 16 -21 21 -21
13z"/>
<path d="M3510 2816 c0 -2 8 -10 18 -17 15 -13 16 -12 3 4 -13 16 -21 21 -21
13z"/>
<path d="M3094 2745 c-57 -56 -139 -68 -234 -35 -53 18 -54 18 -30 0 58 -44
154 -61 221 -39 43 15 99 56 99 73 0 31 -25 31 -56 1z"/>
<path d="M2664 2716 c-5 -13 -24 -16 -95 -16 -74 0 -87 -2 -83 -15 5 -12 26
-15 105 -15 98 0 99 0 99 24 0 29 -18 44 -26 22z"/>
<path d="M3357 2715 c-5 -12 -24 -15 -92 -15 -70 0 -85 -3 -85 -15 0 -13 16
-15 103 -13 100 3 102 3 102 27 0 28 -20 39 -28 16z"/>
<path d="M3610 2715 c0 -12 -17 -15 -96 -15 -72 0 -95 -3 -92 -12 3 -9 37 -14
111 -16 l107 -3 0 31 c0 20 -5 30 -15 30 -8 0 -15 -7 -15 -15z"/>
<path d="M1545 2709 c8 -13 54 -35 90 -43 26 -6 28 -6 15 7 -18 17 -113 50
-105 36z"/>
<path d="M1936 2599 c-48 -36 -108 -39 -167 -8 -23 11 -38 16 -34 10 14 -24
105 -61 147 -61 50 0 121 41 116 67 -5 26 -20 24 -62 -8z"/>
<path d="M1103 2236 c-4 -8 -17 -15 -28 -18 -19 -3 -20 -12 -23 -196 -2 -165
0 -192 13 -192 12 0 15 28 17 178 3 175 3 177 26 180 17 3 22 10 22 33 0 31
-14 38 -27 15z"/>
<path d="M1630 2239 c0 -5 -13 -15 -30 -20 l-30 -11 0 -223 c0 -170 -3 -224
-12 -228 -10 -3 -10 -7 0 -20 8 -9 20 -13 28 -10 11 4 14 44 14 228 l0 223 30
11 c23 7 30 16 30 35 0 16 -6 26 -15 26 -8 0 -15 -5 -15 -11z"/>
<path d="M2257 2236 c-3 -8 -16 -16 -29 -18 l-23 -3 0 -189 c0 -141 3 -190 12
-193 10 -4 13 38 15 174 3 176 3 178 26 181 17 3 22 10 22 33 0 30 -14 39 -23
15z"/>
<path d="M3000 2240 c0 -6 -13 -16 -30 -21 -29 -11 -30 -12 -30 -80 0 -55 3
-69 15 -69 11 0 15 13 15 54 0 51 2 55 31 65 23 8 30 16 27 32 -3 23 -28 40
-28 19z"/>
<path d="M3293 2236 c-4 -8 -17 -15 -28 -18 -19 -3 -20 -12 -23 -196 -2 -165
0 -192 13 -192 12 0 15 28 17 178 3 175 3 177 26 180 17 3 22 10 22 33 0 31
-14 38 -27 15z"/>
<path d="M1290 2236 c0 -2 7 -9 15 -16 13 -11 14 -10 9 4 -5 14 -24 23 -24 12z"/>
<path d="M1981 2184 c-7 -31 -19 -58 -27 -61 -24 -9 -16 -33 11 -33 29 0 42
25 52 95 4 32 2 43 -9 48 -12 4 -18 -8 -27 -49z"/>
<path d="M3740 2190 c0 -38 -5 -54 -22 -70 -19 -18 -20 -22 -8 -30 35 -23 50
-2 57 78 5 63 4 72 -11 72 -13 0 -16 -10 -16 -50z"/>
<path d="M4081 2179 c-8 -40 -17 -59 -26 -59 -8 0 -15 -7 -15 -15 0 -9 9 -15
25 -15 29 0 42 25 52 95 4 31 2 43 -9 47 -11 5 -17 -9 -27 -53z"/>
<path d="M2709 2170 c-7 -38 -17 -60 -25 -60 -8 0 -14 -7 -14 -15 0 -10 10
-15 29 -15 27 0 29 3 41 64 12 62 9 86 -10 86 -5 0 -14 -27 -21 -60z"/>
<path d="M1800 2207 c-30 -15 -39 -67 -16 -87 14 -11 16 -9 16 13 0 31 18 46
64 54 21 3 35 11 33 17 -5 16 -68 18 -97 3z"/>
<path d="M2080 2206 c0 -9 5 -16 10 -16 6 0 10 4 10 9 0 6 -4 13 -10 16 -5 3
-10 -1 -10 -9z"/>
<path d="M2494 2201 c-56 -34 -78 -77 -83 -160 -4 -78 9 -141 34 -161 13 -11
13 -8 4 19 -6 17 -10 67 -8 109 4 68 8 84 33 116 31 42 78 66 126 66 35 0 40
15 8 24 -42 11 -83 6 -114 -13z"/>
<path d="M2820 2206 c0 -9 5 -16 10 -16 6 0 10 4 10 9 0 6 -4 13 -10 16 -5 3
-10 -1 -10 -9z"/>
<path d="M3905 2208 c-38 -21 -48 -65 -20 -88 13 -11 15 -9 15 13 0 31 18 46
64 54 49 8 48 33 -1 33 -21 0 -47 -6 -58 -12z"/>
<path d="M925 2200 c3 -5 10 -10 16 -10 5 0 9 5 9 10 0 6 -7 10 -16 10 -8 0
-12 -4 -9 -10z"/>
<path d="M1170 2200 c0 -5 5 -10 10 -10 6 0 10 5 10 10 0 6 -4 10 -10 10 -5 0
-10 -4 -10 -10z"/>
<path d="M1485 2200 c3 -5 10 -10 16 -10 5 0 9 5 9 10 0 6 -7 10 -16 10 -8 0
-12 -4 -9 -10z"/>
<path d="M3115 2200 c3 -5 10 -10 16 -10 5 0 9 5 9 10 0 6 -7 10 -16 10 -8 0
-12 -4 -9 -10z"/>
<path d="M3394 2169 c-4 -23 -15 -46 -25 -52 -24 -15 -24 -23 1 -30 24 -6 50
16 50 43 0 34 12 50 36 50 15 0 24 6 24 15 0 11 -11 15 -40 15 -39 0 -40 -1
-46 -41z"/>
<path d="M3580 2020 c0 -162 2 -190 15 -190 13 0 15 26 15 175 l0 175 25 0
c16 0 25 6 25 15 0 11 -11 15 -40 15 l-40 0 0 -190z"/>
<path d="M1320 2196 c0 -2 8 -10 18 -17 15 -13 16 -12 3 4 -13 16 -21 21 -21
13z"/>
<path d="M1350 2156 c0 -2 8 -10 18 -17 15 -13 16 -12 3 4 -13 16 -21 21 -21
13z"/>
<path d="M1390 2106 c0 -2 8 -10 18 -17 15 -13 16 -12 3 4 -13 16 -21 21 -21
13z"/>
<path d="M1260 1968 c0 -116 2 -138 15 -138 22 0 22 227 0 256 -13 17 -14 5
-15 -118z"/>
<path d="M1420 2066 c0 -2 8 -10 18 -17 15 -13 16 -12 3 4 -13 16 -21 21 -21
13z"/>
<path d="M1460 2016 c0 -2 8 -10 18 -17 15 -13 16 -12 3 4 -13 16 -21 21 -21
13z"/>
<path d="M1760 2000 c31 -25 134 -74 125 -59 -4 5 -39 25 -78 44 -47 23 -63
28 -47 15z"/>
<path d="M3860 2000 c31 -25 134 -74 125 -59 -4 5 -39 25 -78 44 -47 23 -63
28 -47 15z"/>
<path d="M2942 1918 c2 -54 7 -83 16 -86 9 -3 12 15 12 67 l0 71 85 0 c69 0
85 3 85 15 0 12 -18 15 -100 15 l-101 0 3 -82z"/>
<path d="M2760 1965 c0 -9 -9 -15 -25 -15 -24 0 -25 -2 -25 -71 l0 -70 -47
-22 c-63 -28 -182 -30 -232 -3 -18 9 -30 13 -26 7 3 -6 25 -21 48 -33 59 -31
173 -31 240 -1 l47 22 0 70 c0 69 1 71 25 71 21 0 25 5 25 30 0 20 -5 30 -15
30 -8 0 -15 -7 -15 -15z"/>
<path d="M2005 1909 c0 -57 -2 -63 -37 -94 -55 -51 -138 -67 -231 -46 -55 13
-43 -11 14 -26 100 -26 190 -11 247 42 35 31 37 37 37 94 0 40 -5 65 -15 75
-13 14 -15 9 -15 -45z"/>
<path d="M4109 1923 c4 -61 -18 -103 -70 -133 -47 -26 -136 -36 -197 -22 -59
14 -51 -9 9 -25 100 -26 190 -11 247 42 35 31 37 37 37 94 0 40 -5 65 -15 75
-13 14 -15 10 -11 -31z"/>
<path d="M2590 1941 c0 -6 5 -13 10 -16 6 -3 10 1 10 9 0 9 -4 16 -10 16 -5 0
-10 -4 -10 -9z"/>
<path d="M1750 1877 c0 -13 7 -30 16 -38 14 -11 15 -9 12 21 -4 39 -28 54 -28
17z"/>
<path d="M3856 1873 c10 -44 26 -54 22 -14 -2 19 -9 36 -16 39 -9 3 -11 -4 -6
-25z"/>
<path d="M1097 1785 c-5 -12 -24 -15 -92 -15 -70 0 -85 -3 -85 -15 0 -13 16
-15 103 -13 100 3 102 3 102 27 0 28 -20 39 -28 16z"/>
<path d="M1307 1785 c-5 -11 -22 -15 -72 -15 -52 0 -65 -3 -65 -15 0 -13 14
-15 83 -13 79 3 82 4 82 27 0 28 -20 39 -28 16z"/>
<path d="M2250 1786 c0 -13 -15 -16 -90 -16 -74 0 -90 -3 -90 -15 0 -13 16
-15 103 -13 100 3 102 3 102 27 0 13 -6 26 -12 29 -7 2 -13 -3 -13 -12z"/>
<path d="M2994 1785 c-5 -12 -25 -15 -90 -15 -68 0 -84 -3 -84 -15 0 -12 18
-15 99 -15 91 0 100 2 106 20 11 34 -19 58 -31 25z"/>
<path d="M3287 1785 c-5 -12 -24 -15 -92 -15 -70 0 -85 -3 -85 -15 0 -13 16
-15 103 -13 100 3 102 3 102 27 0 28 -20 39 -28 16z"/>
<path d="M3630 1786 c0 -13 -15 -16 -90 -16 -74 0 -90 -3 -90 -15 0 -13 16
-15 103 -13 100 3 102 3 102 27 0 13 -6 26 -12 29 -7 2 -13 -3 -13 -12z"/>
<path d="M3108 673 c7 -3 16 -2 19 1 4 3 -2 6 -13 5 -11 0 -14 -3 -6 -6z"/>
</g>
</svg>
